<?xml version="1.0" encoding="UTF-8"?>
<svg id="Layer_1" xmlns="http://www.w3.org/2000/svg" version="1.1" viewBox="0 0 411.14 333.15">
  <!-- Generator: Adobe Illustrator 29.5.1, SVG Export Plug-In . SVG Version: 2.1.0 Build 141)  -->
  <defs>
    <style>
      .st0 {
        fill: #fad69b;
      }

      .st1 {
        fill: #c2b78a;
      }

      .st2 {
        fill: #5b9080;
      }

      .st3 {
        display: none;
      }

      .st3, .st4 {
        fill: #2e5e5c;
      }

      .st5 {
        fill: #9ca167;
      }

      .st6 {
        fill: #eb743d;
      }

      .st7 {
        fill: #f6885c;
      }

      .st8 {
        fill: #848f76;
      }
    </style>
  </defs>
  <path class="st3" d="M714.08-158.92v1024H-308.92V-158.92h1023ZM392.38,220.08c7.7-68.56-24.69-136.74-80.6-175.81C203.47-31.43,52.02,23.87,18.04,150.86c-5.71,21.34-7.12,42.07-6.27,64.22,8.43-4.88,16.9-9.89,26-13.47,14.89-5.86,32.26-8.67,48.15-6.26,22.19,3.37,26.22,12.93,46.74-4.76,12.34-10.64,36.66-41.3,49.64-46.31,9.27-3.58,14.06-.23,21.69-9.29,12.15-14.44,30.66-62.46,55.55-43.44,12.42,9.49,26.79,31.33,38.43,43.54,9.22,9.67,9.43,8.75,20.73,14.25,8.59,4.18,24.51,25.64,32.22,33.75,12.8,13.44,26.19,26.39,41.46,36.99ZM388.4,237.08c-19.35-16.42-37.94-33.59-55.46-51.99-5.12-5.37-15.57-20.28-21.45-22.53-2.2-.84-4.71-.68-7.25-1.74-11.64-4.88-37.63-41.65-48.2-52.76-6.36-6.69-8.3-9.19-15.47-1.45-11.64,12.55-22.53,41.72-38.01,47.96-4.56,1.83-9.39,1.74-13.77,3.21-8.29,2.79-32.52,30.91-41.15,38.81-5.94,5.44-12.01,10.98-18.99,14.98,16.88,10.71,34.86,21.51,55.45,22.49,18.98.9,37.15-8.08,55.22-12.7,26.46-6.77,45.62-7.46,72.14.22,12.58,3.64,33.97,15.5,45.46,15.5h31.47ZM386.39,252.08c-8.43-.39-17.03.51-25.46-.02-26.63-1.66-48.12-17.49-75.06-20.87-50.52-6.33-78.44,32.54-134.92,9.05-50.64-21.07-67.54-49.66-125.94-16.15-2.51,1.44-8.56,3.49-10.24,5.48-3.07,3.66,2.84,14.48,1.99,19.49,22.1-3.49,44.79-7.38,67.18-3.75,28.73,4.66,45.18,18.88,69.01,31.92,56.57,30.95,79.26-9.02,130.53-19.68,27.97-5.82,64.55-4.22,90.66,8.23,1.93.92,2.01,4.03,6.68,3.35l5.56-17.06ZM375.41,282.09c-35.52-13.7-74.95-17.98-110.87-3.5-19.87,8.01-36.78,20.61-58.75,24.19-52.53,8.57-73.75-32.47-118.89-42.41-20.92-4.61-43.95-2.11-64.22,4.33,4.83,19.23,15.82,37.41,29.07,51.85l300.98.54c9.18-10.43,17.21-22.13,22.68-35ZM412.36,482.08c.65,3.58,2.61,6.55,6.46,7.05,4.7.61,24.67.73,29-.08,1.93-.36,4.37-2.52,4.57-4.53.3-3.07-9.21-10.7-8.04-15.94l.06-131.06c-.85-7.18-9.66-3.69-14.3-2.2-5.09,1.63-19.21,7.06-23.43,9.54-6.85,4.02,3.33,12.16,4.47,18.96s-.51,15.09,1.23,22.26c-43.15-19.32-80.95,25.76-70.19,67.77,6.39,24.94,31.28,45.03,57.48,36.01l12.7-7.77ZM479.09,339.28c-22.48,1.8-21.62,33.06-2.2,35.7,28.98,3.95,27.81-37.75,2.2-35.7ZM-178.05,463.58v-86.5c25.17,29.84,46.09,63.44,70.53,93.9,8.85,11.03,18.21,24.74,34.38,17.41.37-8.04,1.71-16.81,2.02-24.76,1.18-30.59-2.39-63.94-.03-94.03.82-10.48,3.89-19.12,10.92-26.9-.8-1.42-1.84-2.28-3.47-2.59-2.88-.55-29.81-.31-31.44.47-.86.41-1.52,1.32-1.87,2.2-.84,3.4,4.4,6.71,6.06,9.6,1.89,3.27,4.41,11.41,4.79,15.21-2.1,22.3,2.9,47.16,1.01,69.01-.13,1.49.79,2.88-1.49,2.49l-62.47-89.48c-4.03-3.95-7.32-8.81-13.44-9.54-8.4-1.01-32.64-1.03-41.03-.03-8.53,1.02-.25,7.04,1.52,9.57,4.41,6.3,7.39,15.19,8.05,22.94,1.85,21.62,1.08,55,0,77.08-.33,6.81-1,17.55-3.26,23.74-1.72,4.71-8.89,11.3-7.84,15.14.59,2.15,34.42,2.82,36.59-.37,1.45-5.5-4.26-8.43-6.42-13.68-1-2.43-2.86-8.46-3.13-10.87ZM-11.42,381.37c-67.16,6.7-62.33,116.17,9.68,110.69,69.39-5.28,65.02-118.15-9.68-110.69ZM302.46,479.08c3.8,14.99,26.65,14.51,36.37,6.89,5.83-4.57-1.55-6.78-3.82-8.96-12.71-12.21-1.03-64.31-26.08-85.9-16.43-14.16-54.25-14.55-66.86,5.02-12.48,19.37,10.31,32.72,20.29,16.31,3.59-5.91,6.45-23.21,16.17-21.93,12.72,1.68,15.11,30.56,16.94,40.57-21.35-4.86-51.7-10.55-59.46,16.99-9.32,33.11,24.92,51.05,53,41.05,6.99-2.49,7.02-4.79,11.37-9.4.79-.84.68-.92,2.06-.63ZM578.2,479.08c2.36,15.66,26.64,14.08,35.94,6.46,6.58-5.39-1.88-6.2-4.39-8.53-11.89-11.03-2.16-62.95-23.65-84.33-17.29-17.21-66.11-16.82-72.33,11.38-2.32,10.52,5.62,16.88,15.77,14.78,13.04-2.7,11.27-31.87,25.98-28.57,11.02,2.47,14.26,31.43,14.7,40.8-21.2-5.36-50.98-10.12-58.45,16.98-8.9,32.26,22.6,49.56,50.68,41.73,7.91-2.21,8.76-4.9,13.7-10.07.79-.83.67-.92,2.07-.64ZM121.66,489.08c11.49,0,27.7,1.36,38.51.05,3.61-.44,4.69-2.65,2.96-6.07-1.02-2.02-5.41-3.4-7.04-8.95-2.72-9.26-2.53-46.83-1.46-57.52,1.51-15.01,18.71-26.62,28.42-11.47,5.67,8.86,8.95,62.02,5.59,71.5-1.43,4.03-7.19,7.76-2.55,12.45h42.96c.93,0,2.55-3.44,2.1-5.03-1.6-5.68-8.28-7.68-9.47-18.59-3.07-28.09,6.21-80.95-34.55-83.42-14.43-.87-25.21,4.96-35.04,15.02h-1.45c-12.25-21.29-45.88-18.6-60.46-.99l-.64-11.84c-1.65-.9-3.19-1.14-5.06-.95-3.33.32-31.33,12.25-32.27,13.79-2.6,4.25,6.51,10.99,7.42,17.6,1.6,11.66,1.05,39.67.13,51.95-.24,3.17-.53,4.48-1.56,7.44-2.42,6.98-13.84,15.29,1.02,15.82,5.59.2,12.53-.84,17.98-.88,3.25-.03,25.7,3.52,21.99-4.88-.96-2.18-4.72-5.07-6.02-8.03-3.65-8.25-3.5-47.12-2.47-57.51,1.88-19.01,22.42-30.21,30.45-10.5,4.92,12.06,4.25,48.78,2.42,62.41-1.18,8.73-13.15,14.48-3.91,18.59.61.27.83,1.52,2,0ZM496.05,383.32c-.63-.64-2.43-1.2-3.33-1.2-2.43-.02-22.96,9.24-26.76,11.1-1.76.86-6.99,2.97-7.51,4.53-1.68,5.04,3.45,7.26,5.08,10.62,1.08,2.21,1.6,5.69,1.82,8.18.89,10.32,1.23,50.27-1.86,58.21-1.94,4.99-9.06,10.25-2.47,14.13,12.2-.68,26.88,1.61,38.78.22,1.79-.21,4.76-.76,5.37-2.69-.08-7.58-6.94-7.54-7.89-15.83-2.9-25.4,2.25-56.13.04-82.04-.13-1.56-.17-4.1-1.28-5.21ZM103.43,531.34c-24.85,3.18-22.07,44.71,8.49,39.5,6.73-1.15,13.35-8.89,14.49-15.5,2.46-14.33-8.53-25.85-22.98-24ZM274.51,531.08v28.5c0,.27-1.56,2.74-1.99,3-4.75,2.92-7.32-3.79-9.36-3.43l-4.66,5.43c2.49,6.3,11.91,8.11,17.76,5.75,11.23-4.53,6.27-28.02,7.11-37.6l-1.5-1.5-7.36-.14ZM332.11,536.43c-10.59-9.87-30.94-4.99-33.38,9.39-2.71,15.97,6.81,27.33,23.26,25.28,15.85-1.97,21.24-24.31,10.12-34.67ZM-141.59,532.08c-5.64-1.25-15.33.92-21.48,0v39h8.99v-14c11.78,2.1,24.32-3.17,20.52-17.04-.72-2.63-5.5-7.4-8.03-7.96ZM-117.11,570.08c-.05.98.65.93,1.45,1.03,6.58.84,14.76-.68,21.54-.02v-8.01h-14.99v-31h-7.99c-1.66,1.04-1,3.79-1.02,5.49-.11,8.99-.09,18.04,0,27.03.02,1.69-.64,4.45,1.02,5.49ZM-42.19,571.07l-13.07-37.41c-1.12-2.3-8.44-2.14-9.94-1.13-1.78,1.2-13.45,34.47-13.95,39.53,10.67,2.01,7.4-5.32,10.47-9.01,1.74-2.09,12.17-.63,15.36-.84l3.1,8.4,8.03.45ZM-27.2,532.08v39h7.99v-26l17.14,26.83c2.88.23,6.82,1.09,8.83-1.33v-38.5H-2.22v24l-5.33-10.17c-3.41-1.47-8.54-12.85-9.85-13.62-1.7-1-7.39.26-9.79-.21ZM56.72,554.58v17.5c13.95,1.79,7.26-10.39,9.46-19.03,1.33-5.23,11.51-16.42,11.53-20.46-11.2-4.1-11.02,7.96-16.98,13.49-3.95-7.88-6.23-16.5-16.99-13.99l12.98,22.49ZM149.63,532.08h-8.99v28.5c0,.29,2.44,4.29,3,5,7.31,9.31,24.6,7.89,29.18-2.79.32-.74,1.79-5.86,1.79-6.21v-24.5h-8.99v24.5c0,3.05-4.59,6.98-7.73,7.29-2.28.23-8.26-2.52-8.26-4.29v-27.5ZM212.07,532.08c-5.87-1.18-15.17.87-21.48,0v39l8.85-1.14.14-12.86c8.88-3.52,10.35,12.32,13.98,14.52,1.68,1.02,8.59.99,9.01-1.03.33-1.6-7.84-12.5-8.99-14.99,11.21-4.17,9.9-21.2-1.51-23.49ZM360.42,532.08h-8.99v26.5c0,.6,2.86,6.48,3.55,7.45,4.55,6.42,13.31,7.15,20.4,4.52,4.18-1.55,10.02-7.6,10.02-11.97v-26.5h-8.99v26.5c0,6.6-15.98,6.27-15.98,0v-26.5ZM422.86,532.08c-6.13-1.09-15,.8-21.48,0v39l8.56-.94.43-13.07c7.24-1.8,9.6,6.27,13.05,11.49.67,1.01.79,3.1,1.08,3.36.77.68,8.46.56,8.84-1.38.35-1.73-7.21-12.89-8.97-14.97,11.47-4.68,10.13-21.43-1.52-23.5ZM448.34,532.08v37.5l1.65,1.34,6.34.16v-26c4.92,3.6,13.37,23.31,16.99,25.5,2.16,1.3,6.42.16,8.99.5v-39h-8.99v21.5c0,.27.92,1.06,1.02,1.98l-2,.51c-2.91-4.62-10.81-20.44-14.44-23.06-2.53-1.83-6.53-.64-9.56-.93ZM525.26,532.08h-25.97v39h25.97v-8h-16.98v-8h14.49c2.24-1.79,2.33-6.06,0-8h-14.49v-8h16.98v-7ZM551.24,554.58v16.5l8.56-.94c1.45-5.33-.65-11.92.89-17.11s10.5-14.53,12.54-20.45c-12.29-4.27-11.13,7.52-17.98,13.49-.77-1.94-6.51-13.42-7.16-13.83-1.45-.92-7.58.3-9.83-.16l12.98,22.49Z"/>
  <path class="st4" d="M47.89,320.29C22.59,287.16,7.25,245.98,6.5,201.59,4.65,92.63,94.53,4.27,203.14,4.27s198.66,88.37,196.64,197.33c-.83,44.61-16.4,86.01-41.99,119.25"/>
  <path class="st6" d="M392.38,220.08c-15.27-10.6-28.67-23.55-41.46-36.99-7.71-8.1-23.64-29.57-32.22-33.75-11.3-5.5-11.5-4.58-20.73-14.25-11.63-12.2-26.01-34.05-38.43-43.54-24.89-19.02-43.4,29-55.55,43.44-7.63,9.06-12.42,5.72-21.69,9.29-12.99,5.01-37.3,35.67-49.64,46.31-20.52,17.69-24.55,8.13-46.74,4.76-15.89-2.41-33.26.4-48.15,6.26-9.09,3.58-17.57,8.59-26,13.47-.85-22.14.56-42.87,6.27-64.22C52.02,23.87,203.47-31.43,311.79,44.26c55.91,39.07,88.29,107.25,80.6,175.81ZM148.62,106.09c-7.15-4.22-15.03-5.7-22.96-2.51-2.86,1.15-7.12,5.94-9.29,5.39-10.7-14.55-26.04-23.86-44.66-22.89-3.34,3.25,16.37,16.99,18.5,18.97,4.74,4.39,9.91,9.61,11.46,16.01-7.09,2.06-13.29,5.11-20.98,4.02,9.17,9.3,21.72,10.11,33.32,4.84,7.33-3.33,12.05-10.5,20.62-11.87l-4.99-2,10.62-6.86,8.35-3.12Z"/>
  <path class="st7" d="M388.4,237.08h-31.47c-11.49,0-32.87-11.86-45.46-15.5-26.53-7.67-45.68-6.99-72.14-.22-18.08,4.63-36.24,13.61-55.22,12.7-20.59-.98-38.57-11.79-55.45-22.49,6.98-4,13.05-9.54,18.99-14.98,8.63-7.9,32.85-36.03,41.15-38.81,4.39-1.47,9.22-1.38,13.77-3.21,15.48-6.23,26.37-35.4,38.01-47.96,7.17-7.73,9.11-5.24,15.47,1.45,10.56,11.11,36.55,47.88,48.2,52.76,2.54,1.07,5.05.91,7.25,1.74,5.89,2.25,16.33,17.15,21.45,22.53,17.52,18.39,36.1,35.57,55.46,51.99ZM293.32,198.93c2.53-4.11-8.11-13.83-10.47-17.7-4.39-7.21-5.86-14.16-11.83-21.16-2.72-3.19-18.61-15.98-21.57-15.5-5.26.85-6.18,6.44-3.45,10.56,9.2,10.73,26.05,47.03,41.94,45.92,1.75-.12,3.64-1.61,5.38-2.11Z"/>
  <path class="st5" d="M375.41,282.09c-5.47,12.87-22.68,35-22.68,35l-300.98-.54s-24.24-32.62-29.07-51.85c20.27-6.44,43.3-8.94,64.22-4.33,45.14,9.94,66.36,50.98,118.89,42.41,21.97-3.58,38.88-16.18,58.75-24.19,35.93-14.48,75.35-10.2,110.87,3.5Z"/>
  <path class="st0" d="M119.66,489.08c-9.24-4.1,2.73-9.86,3.91-18.59,1.84-13.63,2.5-50.35-2.42-62.41-8.04-19.71-28.58-8.5-30.45,10.5-1.02,10.38-1.18,49.25,2.47,57.51,1.31,2.96,5.06,5.85,6.02,8.03,3.71,8.39-18.74,4.85-21.99,4.88-5.45.04-12.4,1.08-17.98.88-14.86-.53-3.44-8.84-1.02-15.82,1.03-2.96,1.32-4.26,1.56-7.44.92-12.29,1.47-40.29-.13-51.95-.91-6.61-10.01-13.35-7.42-17.6.94-1.54,28.95-13.46,32.27-13.79,1.88-.18,3.42.05,5.06.95l.64,11.84c14.59-17.62,48.21-20.31,60.46,1h1.45c9.83-10.08,20.61-15.91,35.04-15.03,40.76,2.46,31.48,55.33,34.55,83.42,1.19,10.91,7.87,12.91,9.47,18.59.45,1.59-1.18,5.03-2.1,5.03h-42.96c-4.64-4.69,1.12-8.42,2.55-12.45,3.36-9.48.08-62.65-5.59-71.5-9.71-15.15-26.91-3.54-28.42,11.47-1.07,10.69-1.26,48.26,1.46,57.52,1.63,5.55,6.02,6.93,7.04,8.95,1.73,3.42.65,5.63-2.96,6.07-10.81,1.31-27.02-.05-38.51-.05h-2Z"/>
  <path class="st0" d="M-178.05,463.58c.27,2.41,2.13,8.43,3.13,10.87,2.16,5.25,7.87,8.18,6.42,13.68-2.17,3.19-36,2.52-36.59.37-1.05-3.84,6.11-10.42,7.84-15.14,2.26-6.19,2.93-16.93,3.26-23.74,1.07-22.07,1.84-55.45,0-77.08-.66-7.75-3.64-16.64-8.05-22.94-1.77-2.54-10.05-8.55-1.52-9.57,8.39-1.01,32.63-.99,41.03.03,6.12.74,9.42,5.59,13.44,9.54l62.47,89.48c2.28.38,1.36-1,1.49-2.49,1.89-21.85-3.11-46.71-1.01-69.01-.38-3.8-2.9-11.94-4.79-15.21-1.66-2.88-6.9-6.19-6.06-9.6.36-.88,1.01-1.79,1.87-2.2,1.62-.78,28.55-1.03,31.44-.47,1.63.31,2.67,1.17,3.47,2.59-7.03,7.78-10.1,16.42-10.92,26.9-2.37,30.08,1.21,63.44.03,94.03-.31,7.96-1.65,16.72-2.02,24.76-16.17,7.33-25.53-6.38-34.38-17.41-24.45-30.46-45.36-64.06-70.53-93.9v86.5Z"/>
  <path class="st2" d="M386.39,252.08l-5.56,17.06c-4.67.68-4.76-2.43-6.68-3.35-26.12-12.45-62.69-14.05-90.66-8.23-51.27,10.66-73.97,50.63-130.53,19.68-23.83-13.04-40.29-27.26-69.01-31.92-22.39-3.63-45.08.26-67.18,3.75.85-5.02-5.06-15.83-1.99-19.49,1.68-1.99,7.73-4.04,10.24-5.48,58.4-33.51,75.3-4.92,125.94,16.15,56.47,23.49,84.4-15.38,134.92-9.05,26.94,3.38,48.43,19.2,75.06,20.87,8.43.53,17.03-.37,25.46.02Z"/>
  <path class="st0" d="M412.36,482.08l-12.7,7.77c-26.2,9.02-51.09-11.07-57.48-36.01-10.76-42,27.04-87.09,70.19-67.77-1.75-7.17-.07-15.37-1.23-22.26s-11.32-14.94-4.47-18.96c4.23-2.48,18.35-7.9,23.43-9.54,4.64-1.49,13.46-4.98,14.3,2.2l-.06,131.06c-1.16,5.24,8.35,12.87,8.04,15.94-.2,2.01-2.64,4.17-4.57,4.53-4.32.81-24.3.68-29,.08-3.84-.5-5.81-3.47-6.46-7.05ZM394.18,392.29c-29.19,2.91-23.69,71.78-5.82,84.32,9.72,6.82,22.05-2.07,23.78-12.28,1.76-10.42,1.28-42.58.28-53.8-.8-8.96-8.46-19.22-18.23-18.24Z"/>
  <path class="st0" d="M302.46,479.08c-1.38-.29-1.27-.21-2.06.63-4.35,4.61-4.38,6.91-11.37,9.4-28.08,10-62.32-7.94-53-41.05,7.75-27.54,38.1-21.85,59.46-16.99-1.83-10.01-4.21-38.88-16.94-40.57-9.73-1.29-12.58,16.02-16.17,21.93-9.97,16.41-32.77,3.06-20.29-16.31,12.61-19.56,50.43-19.17,66.86-5.02,25.04,21.59,13.37,73.69,26.08,85.9,2.27,2.18,9.64,4.4,3.82,8.96-9.73,7.62-32.57,8.11-36.37-6.89ZM293.14,440.43c-5.6-5.27-15.95-5.98-22.13-1.36-15.57,11.62,1.44,52.62,22.51,36.53,8.61-6.58,4.04-13.01,3.03-21.17-.64-5.22,2.12-8.8-3.41-14Z"/>
  <path class="st0" d="M-11.42,381.37c74.7-7.45,79.07,105.41,9.68,110.69-72.01,5.48-76.84-103.99-9.68-110.69ZM-14.5,393.29c-11.14,2.56-13.14,27.05-12.74,36.33.61,14.08,6.85,43.39,21.62,49.36,20.96,8.47,22.25-25.93,21.42-38.44-.97-14.56-9.15-52.1-30.3-47.25Z"/>
  <path class="st0" d="M578.2,479.08c-1.4-.28-1.27-.19-2.07.64-4.94,5.17-5.79,7.86-13.7,10.07-28.08,7.83-59.58-9.46-50.68-41.73,7.48-27.1,37.26-22.34,58.45-16.98-.44-9.37-3.68-38.33-14.7-40.8-14.71-3.3-12.94,25.87-25.98,28.57-10.14,2.1-18.09-4.26-15.77-14.78,6.22-28.2,55.04-28.59,72.33-11.38,21.48,21.38,11.76,73.3,23.65,84.33,2.51,2.33,10.98,3.13,4.39,8.53-9.3,7.62-33.58,9.2-35.94-6.46ZM551.97,436.32c-20.23,3.4-12.41,45.17,8.47,43.55,4.29-.33,11.03-4.51,12.33-8.74s.3-20.62-.76-25.35c-1.65-7.39-13.44-10.57-20.04-9.46Z"/>
  <path class="st0" d="M496.05,383.32c1.11,1.12,1.14,3.65,1.28,5.21,2.21,25.92-2.94,56.64-.04,82.04.95,8.28,7.81,8.25,7.89,15.83-.61,1.93-3.58,2.48-5.37,2.69-11.9,1.39-26.58-.9-38.78-.22-6.59-3.87.52-9.13,2.47-14.13,3.09-7.94,2.75-47.89,1.86-58.21-.21-2.49-.74-5.97-1.82-8.18-1.64-3.36-6.76-5.58-5.08-10.62.52-1.56,5.75-3.67,7.51-4.53,3.8-1.86,24.33-11.12,26.76-11.1.91,0,2.7.57,3.33,1.2Z"/>
  <path class="st0" d="M479.09,339.28c25.61-2.05,26.78,39.66-2.2,35.7-19.42-2.65-20.28-33.9,2.2-35.7Z"/>
  <path class="st0" d="M-27.2,532.08c2.4.47,8.09-.79,9.79.21,1.32.77,6.45,12.15,9.85,13.62l5.33,10.17v-24H6.77v38.5c-2.01,2.42-5.96,1.56-8.83,1.33l-17.14-26.83v26h-7.99v-39Z"/>
  <path class="st0" d="M448.34,532.08c3.03.29,7.03-.9,9.56.93,3.63,2.62,11.53,18.44,14.44,23.06l2-.51c-.1-.92-1.02-1.71-1.02-1.98v-21.5h8.99v39c-2.56-.35-6.83.8-8.99-.5-3.62-2.18-12.07-21.89-16.99-25.5v26l-6.34-.16-1.65-1.34v-37.5Z"/>
  <path class="st0" d="M422.86,532.08c11.65,2.06,12.99,18.82,1.52,23.5,1.76,2.08,9.32,13.24,8.97,14.97-.39,1.94-8.08,2.05-8.84,1.38-.29-.26-.42-2.35-1.08-3.36-3.45-5.22-5.81-13.29-13.05-11.49l-.43,13.07-8.56.94v-39c6.48.8,15.34-1.09,21.48,0ZM422.12,540.31c-2.07-2.08-8.81-.97-11.75-1.24v11.01c5.53,2.36,18.33-3.15,11.75-9.77Z"/>
  <path class="st0" d="M103.43,531.34c14.44-1.85,25.43,9.67,22.98,24-1.13,6.61-7.76,14.35-14.49,15.5-30.56,5.21-33.34-36.32-8.49-39.5ZM103.38,539.29c-15.32,3.53-5.93,32.44,8.79,22.79,10.86-7.12,5.42-26.06-8.79-22.79Z"/>
  <path class="st0" d="M212.07,532.08c11.41,2.29,12.71,19.32,1.51,23.49,1.15,2.49,9.31,13.39,8.99,14.99-.42,2.02-7.33,2.05-9.01,1.03-3.62-2.2-5.1-18.03-13.98-14.52l-.14,12.86-8.85,1.14v-39c6.31.87,15.6-1.18,21.48,0ZM199.58,550.08c17.5,2.54,17.66-13.78,0-11.01v11.01Z"/>
  <path class="st0" d="M332.11,536.43c11.13,10.37,5.74,32.7-10.12,34.67-16.45,2.04-25.98-9.32-23.26-25.28,2.44-14.38,22.79-19.26,33.38-9.39ZM315.2,539.31c-13.34,2.71-10.13,25.62,3.7,24.74,14.68-.94,12.87-28.11-3.7-24.74Z"/>
  <path class="st0" d="M360.42,532.08v26.5c0,6.27,15.98,6.6,15.98,0v-26.5h8.99v26.5c0,4.38-5.84,10.43-10.02,11.97-7.1,2.63-15.85,1.89-20.4-4.52-.68-.96-3.55-6.85-3.55-7.45v-26.5h8.99Z"/>
  <path class="st0" d="M149.63,532.08v27.5c0,1.78,5.98,4.52,8.26,4.29,3.13-.31,7.73-4.24,7.73-7.29v-24.5h8.99v24.5c0,.35-1.47,5.47-1.79,6.21-4.58,10.68-21.87,12.1-29.18,2.79-.55-.71-3-4.71-3-5v-28.5h8.99Z"/>
  <path class="st0" d="M525.26,532.08v7h-16.98v8h14.49c2.33,1.94,2.24,6.21,0,8h-14.49v8h16.98v8h-25.97v-39h25.97Z"/>
  <path class="st0" d="M-42.19,571.07l-8.03-.45-3.1-8.4c-3.19.21-13.62-1.25-15.36.84-3.07,3.7.2,11.02-10.47,9.01.5-5.06,12.17-38.33,13.95-39.53,1.5-1.01,8.82-1.18,9.94,1.13l13.07,37.41ZM-56.17,555.07c-1.28-3.91-2.16-8.11-3.52-11.99-.34-.96-.12-2.3-1.46-2l-4.01,13.99h8.98Z"/>
  <path class="st0" d="M-141.59,532.08c2.53.56,7.31,5.33,8.03,7.96,3.8,13.87-8.74,19.14-20.52,17.04v14h-8.99v-39c6.15.92,15.84-1.25,21.48,0ZM-154.08,550.08c17.25,3,17.28-14,0-11.01v11.01Z"/>
  <path class="st0" d="M551.24,554.58l-12.98-22.49c2.25.46,8.38-.76,9.83.16.66.42,6.39,11.89,7.16,13.83,6.85-5.97,5.69-17.75,17.98-13.49-2.04,5.92-10.99,15.22-12.54,20.45s.56,11.78-.89,17.11l-8.56.94v-16.5Z"/>
  <path class="st0" d="M56.72,554.58l-12.98-22.49c10.76-2.51,13.04,6.11,16.99,13.99,5.96-5.53,5.79-17.58,16.98-13.49-.01,4.04-10.19,15.23-11.53,20.46-2.2,8.64,4.48,20.82-9.46,19.03v-17.5Z"/>
  <path class="st0" d="M274.51,531.08l7.36.14,1.5,1.5c-.84,9.59,4.12,33.07-7.11,37.6-5.85,2.36-15.27.56-17.76-5.75l4.66-5.43c2.04-.36,4.6,6.35,9.36,3.43.44-.27,1.99-2.73,1.99-3v-28.5Z"/>
  <path class="st0" d="M-117.11,532.08h7.99v31h14.99v8.01c-6.77-.65-14.95.86-21.53.02-.8-.1-1.5-.04-1.45-1.03v-38Z"/>
  <path class="st1" d="M-117.11,570.08c-1.65-1.04-1-3.79-1.02-5.49-.09-8.99-.11-18.04,0-27.03.02-1.69-.64-4.45,1.02-5.49v38Z"/>
  <path class="st8" d="M121.66,489.08c-1.17,1.52-1.39.27-2,0h2Z"/>
  <path class="st0" d="M148.62,106.09l-8.35,3.12-10.62,6.86,4.99,2c-8.57,1.37-13.29,8.54-20.62,11.87-11.6,5.27-24.15,4.46-33.32-4.84,7.69,1.09,13.89-1.96,20.98-4.02-1.55-6.4-6.73-11.62-11.46-16.01-2.13-1.98-21.84-15.72-18.5-18.97,18.61-.97,33.96,8.34,44.66,22.89,2.17.55,6.43-4.24,9.29-5.39,7.93-3.19,15.82-1.72,22.96,2.51Z"/>
  <path class="st4" d="M293.32,198.93c-1.74.51-3.63,1.99-5.38,2.11-15.89,1.12-32.75-35.18-41.94-45.92-2.72-4.11-1.81-9.71,3.45-10.56,2.97-.48,18.85,12.31,21.57,15.5,5.97,6.99,7.44,13.95,11.83,21.16,2.36,3.87,13,13.59,10.47,17.7Z"/>
  <path class="st4" d="M394.18,392.29c9.77-.98,17.43,9.28,18.23,18.24,1,11.22,1.48,43.38-.28,53.8-1.72,10.21-14.06,19.1-23.78,12.28-17.86-12.54-23.36-81.41,5.82-84.32Z"/>
  <path class="st4" d="M293.14,440.43c5.53,5.2,2.76,8.78,3.41,14,1.01,8.15,5.58,14.59-3.03,21.17-21.07,16.08-38.08-24.91-22.51-36.53,6.19-4.62,16.54-3.91,22.13,1.36Z"/>
  <path class="st4" d="M-14.5,393.29c21.15-4.86,29.33,32.69,30.3,47.25.83,12.51-.46,46.91-21.42,38.44-14.77-5.97-21.01-35.28-21.62-49.36-.4-9.28,1.6-33.77,12.74-36.33Z"/>
  <path class="st4" d="M551.97,436.32c6.6-1.11,18.39,2.07,20.04,9.46,1.06,4.73,2.06,21.13.76,25.35s-8.04,8.4-12.33,8.74c-20.87,1.62-28.69-40.14-8.47-43.55Z"/>
  <path class="st4" d="M422.12,540.31c6.58,6.61-6.22,12.12-11.75,9.77v-11.01c2.94.27,9.68-.84,11.75,1.24Z"/>
  <path class="st4" d="M103.38,539.29c14.2-3.27,19.65,15.67,8.79,22.79-14.72,9.65-24.11-19.26-8.79-22.79Z"/>
  <path class="st4" d="M199.58,550.08v-11.01c17.66-2.77,17.5,13.55,0,11.01Z"/>
  <path class="st4" d="M315.2,539.31c16.57-3.37,18.37,23.8,3.7,24.74-13.83.88-17.04-22.03-3.7-24.74Z"/>
  <path class="st4" d="M-56.17,555.07h-8.98s4.01-13.99,4.01-13.99c1.34-.3,1.12,1.04,1.46,2,1.36,3.87,2.24,8.08,3.52,11.99Z"/>
  <path class="st4" d="M-154.08,550.08v-11.01c17.28-2.99,17.25,14.01,0,11.01Z"/>
</svg>